<svg viewBox="468.6667 274.7243 380 32.3847" width="380" height="32.3847" xmlns="http://www.w3.org/2000/svg" preserveAspectRatio="xMinYMid meet"><style>.companyName{fill:#EBE7D9}.icon3{fill:#F55139}</style><g transform="rotate(0 509.1636 274.7243)">
<svg width="339.5031" height="32.3847" x="509.1636" y="274.7243" version="1.1" preserveAspectRatio="none" viewBox="1.16 -28.48 303.6 28.96">
  <g class="companyName"><path d="M33-28L18.28-15.04L28 0L20.72 0L13.52-10.96L9-6.96L7.60 0L1.16 0L6.76-28L13.20-28L10.64-15.16L25.16-28L33-28Z M58.64-28L44.08-9.72L42.16 0L35.68 0L37.64-10L30.44-28L36.92-28L41.92-15.52L51.96-28L58.64-28Z M83.44-19.32Q83.44-15.40 81.32-12.60Q79.20-9.80 75.44-8.64L75.44-8.64L80.32 0L73.48 0L69.08-7.84L63.56-7.84L62 0L55.48 0L61.08-28L72.48-28Q77.68-28 80.56-25.72Q83.44-23.44 83.44-19.32L83.44-19.32ZM70.08-13Q73.32-13 75.10-14.48Q76.88-15.96 76.88-18.72L76.88-18.72Q76.88-20.72 75.52-21.72Q74.16-22.72 71.64-22.72L71.64-22.72L66.52-22.72L64.56-13L70.08-13Z M112.84-19.32Q112.84-15.40 110.72-12.60Q108.60-9.80 104.84-8.64L104.84-8.64L109.72 0L102.88 0L98.48-7.84L92.96-7.84L91.40 0L84.88 0L90.48-28L101.88-28Q107.08-28 109.96-25.72Q112.84-23.44 112.84-19.32L112.84-19.32ZM99.48-13Q102.72-13 104.50-14.48Q106.28-15.96 106.28-18.72L106.28-18.72Q106.28-20.72 104.92-21.72Q103.56-22.72 101.04-22.72L101.04-22.72L95.92-22.72L93.96-13L99.48-13Z M139.96-22.80L125.28-22.80L124.08-16.72L137.08-16.72L136.08-11.68L123.04-11.68L121.76-5.20L137.04-5.20L135.96 0L114.28 0L119.88-28L141.04-28L139.96-22.80Z M169.36-28Q174.60-28 177.46-25.70Q180.32-23.40 180.32-19.28L180.32-19.28Q180.32-15.76 178.66-13.14Q177-10.52 173.94-9.12Q170.88-7.72 166.72-7.72L166.72-7.72L160.48-7.72L158.96 0L152.44 0L158.04-28L169.36-28ZM167-13Q170.24-13 172-14.48Q173.76-15.96 173.76-18.72L173.76-18.72Q173.76-20.72 172.42-21.72Q171.08-22.72 168.56-22.72L168.56-22.72L163.48-22.72L161.52-13L167-13Z M209.28-19.32Q209.28-15.40 207.16-12.60Q205.04-9.80 201.28-8.64L201.28-8.64L206.16 0L199.32 0L194.92-7.84L189.40-7.84L187.84 0L181.32 0L186.92-28L198.32-28Q203.52-28 206.40-25.72Q209.28-23.44 209.28-19.32L209.28-19.32ZM195.92-13Q199.16-13 200.94-14.48Q202.72-15.96 202.72-18.72L202.72-18.72Q202.72-20.72 201.36-21.72Q200-22.72 197.48-22.72L197.48-22.72L192.36-22.72L190.40-13L195.92-13Z M225.24 0.48Q221.04 0.48 217.96-1.04Q214.88-2.56 213.24-5.32Q211.60-8.08 211.60-11.68L211.60-11.68Q211.60-16.44 213.78-20.26Q215.96-24.08 219.90-26.28Q223.84-28.48 228.92-28.48L228.92-28.48Q233.12-28.48 236.20-26.96Q239.28-25.44 240.92-22.68Q242.56-19.92 242.56-16.32L242.56-16.32Q242.56-11.56 240.38-7.74Q238.20-3.92 234.26-1.72Q230.32 0.48 225.24 0.48L225.24 0.48ZM225.80-5.04Q228.88-5.04 231.20-6.52Q233.52-8 234.76-10.48Q236-12.96 236-15.96L236-15.96Q236-19.16 234-21.06Q232-22.96 228.36-22.96L228.36-22.96Q225.28-22.96 222.96-21.48Q220.64-20 219.40-17.52Q218.16-15.04 218.16-12.04L218.16-12.04Q218.16-8.84 220.16-6.94Q222.16-5.04 225.80-5.04L225.80-5.04Z M270.16-22.80L255.52-22.80L254.04-15.40L267.04-15.40L265.96-10.20L253.04-10.20L251 0L244.48 0L250.08-28L271.24-28L270.16-22.80Z M270.04 0L275.64-28L282.16-28L276.56 0L270.04 0Z M283.16 0L288.76-28L295.28-28L290.72-5.28L304.76-5.28L303.68 0L283.16 0Z"/></g>
</svg>
</g><g transform="rotate(0 468.6667 274.7243)">
<svg width="40.4969" height="32.3847" x="468.6667" y="274.7243" version="1.1" preserveAspectRatio="none" viewBox="-4.6 -33.68 47.12 37.68">
  <g class="icon3"><path d="M-4.60 4L15.88-33.68L24.12-33.68L3.64 4L-4.60 4Z M13.80 4L34.28-33.68L42.52-33.68L22.04 4L13.80 4Z"/></g>
</svg>
</g></svg>
